<?xml version="1.0" encoding="UTF-8" standalone="no"?>
<svg xmlns="http://www.w3.org/2000/svg" xmlns:xlink="http://www.w3.org/1999/xlink" xmlns:serif="http://www.serif.com/" width="100%" height="100%" viewBox="0 0 1079 647" version="1.1" xml:space="preserve" style="fill-rule:evenodd;clip-rule:evenodd;stroke-linejoin:round;stroke-miterlimit:2;">
    <g transform="matrix(1,0,0,1,0,-690.288)">
        <g id="cargo" transform="matrix(1.30714,0,0,1.0933,0,690.288)">
            <rect x="0" y="0" width="825.202" height="591.419" style="fill:none;"></rect>
            <g transform="matrix(0.765028,0,0,0.914664,-36.3322,-114.503)">
                <path d="M396.54,586.789C370.635,586.169 342.863,600.685 335.491,625.527L476.116,619.802C473.456,617.964 470.785,616.149 468.101,614.356C446.525,600.006 422.446,587.41 396.54,586.789Z" style="fill:rgb(242,242,242);fill-rule:nonzero;"></path>
            </g>
            <g transform="matrix(0.765028,0,0,0.914664,-36.3322,-114.503)">
                <path d="M476.116,619.802C494.816,632.729 513.066,646.524 533.902,655.498C585.496,677.718 644.89,667.355 699.177,652.913C753.465,638.471 808.881,620.121 864.561,627.564C896.134,631.785 925.942,644.138 956.419,653.406C986.895,662.673 1019.69,668.879 1050.43,660.559C1081.18,652.238 1108.92,625.853 1109.72,594.009C877.589,551.089 662.376,549.815 476.116,619.802Z" style="fill:rgb(242,242,242);fill-rule:nonzero;"></path>
            </g>
            <g transform="matrix(0.765028,0,0,0.914664,-36.3322,-114.503)">
                <path d="M108.54,632.789C82.635,632.169 54.863,646.685 47.491,671.527L188.116,665.802C185.456,663.964 182.785,662.149 180.101,660.356C158.525,646.006 134.446,633.41 108.54,632.789Z" style="fill:rgb(242,242,242);fill-rule:nonzero;"></path>
            </g>
            <g transform="matrix(0.765028,0,0,0.914664,-36.3322,-114.503)">
                <path d="M188.116,665.802C206.816,678.729 225.066,692.524 245.902,701.498C297.496,723.718 356.89,713.355 411.177,698.913C465.465,684.471 520.881,666.121 576.561,673.564C608.134,677.785 637.942,690.138 668.419,699.406C698.895,708.673 731.686,714.879 762.434,706.559C793.183,698.238 820.917,671.853 821.721,640.009C589.589,597.089 374.376,595.815 188.116,665.802Z" style="fill:rgb(242,242,242);fill-rule:nonzero;"></path>
            </g>
            <g transform="matrix(0.765028,0,0,0.914664,-36.3322,-114.503)">
                <path d="M499.828,451.644L354.468,451.644C350.179,451.647 346.651,455.175 346.648,459.464L346.648,512.424C346.651,516.713 350.179,520.241 354.468,520.244L499.828,520.244C504.117,520.241 507.645,516.713 507.648,512.424L507.648,459.464C507.645,455.175 504.117,451.647 499.828,451.644Z" style="fill:rgb(230,230,230);fill-rule:nonzero;"></path>
            </g>
            <g transform="matrix(0.765028,0,0,0.914664,7.65028e-06,25.2348)">
                <rect x="309.657" y="298.868" width="4" height="68.6" style="fill:rgb(204,204,204);"></rect>
            </g>
            <g transform="matrix(0.765028,0,0,0.914664,7.65028e-06,25.2348)">
                <rect x="326.657" y="298.868" width="4" height="68.6" style="fill:rgb(204,204,204);"></rect>
            </g>
            <g transform="matrix(0.765028,0,0,0.914664,7.65028e-06,25.2348)">
                <rect x="343.657" y="298.868" width="4" height="68.6" style="fill:rgb(204,204,204);"></rect>
            </g>
            <g transform="matrix(0.765028,0,0,0.914664,7.65028e-06,25.2348)">
                <rect x="360.657" y="298.868" width="4" height="68.6" style="fill:rgb(204,204,204);"></rect>
            </g>
            <g transform="matrix(0.765028,0,0,0.914664,7.65028e-06,25.2348)">
                <rect x="377.657" y="298.868" width="4" height="68.6" style="fill:rgb(204,204,204);"></rect>
            </g>
            <g transform="matrix(0.765028,0,0,0.914664,7.65028e-06,25.2348)">
                <rect x="394.657" y="298.868" width="4" height="68.6" style="fill:rgb(204,204,204);"></rect>
            </g>
            <g transform="matrix(0.765028,0,0,0.914664,7.65028e-06,25.2348)">
                <rect x="411.657" y="298.868" width="4" height="68.6" style="fill:rgb(204,204,204);"></rect>
            </g>
            <g transform="matrix(0.765028,0,0,0.914664,7.65028e-06,25.2348)">
                <rect x="428.657" y="298.868" width="4" height="68.6" style="fill:rgb(204,204,204);"></rect>
            </g>
            <g transform="matrix(0.765028,0,0,0.914664,7.65028e-06,25.2348)">
                <rect x="445.657" y="298.868" width="4" height="68.6" style="fill:rgb(204,204,204);"></rect>
            </g>
            <g transform="matrix(0.765028,0,0,0.914664,-36.3322,-114.503)">
                <path d="M649.877,327.771L632.031,289.375C629.362,283.633 623.58,279.944 617.248,279.944L596.22,279.944C597.81,277.201 598.648,274.086 598.648,270.916C598.648,261.042 590.522,252.916 580.648,252.916C570.773,252.916 562.648,261.042 562.648,270.916C562.648,274.086 563.485,277.201 565.076,279.944L544.048,279.944C537.716,279.944 531.933,283.633 529.265,289.375L511.419,327.771C510.418,329.923 509.9,332.269 509.9,334.642C509.9,343.585 517.259,350.944 526.202,350.944L575.648,350.944L575.648,536.944L585.648,536.944L585.648,350.944L635.094,350.944C644.037,350.944 651.396,343.585 651.396,334.642C651.396,332.269 650.878,329.923 649.877,327.771Z" style="fill:rgb(230,230,230);fill-rule:nonzero;"></path>
            </g>
            <g transform="matrix(0.765028,0,0,0.914664,-36.3322,-114.503)">
                <path d="M856.828,451.644L711.468,451.644C707.179,451.647 703.651,455.175 703.648,459.464L703.648,512.424C703.651,516.713 707.179,520.241 711.468,520.244L856.828,520.244C861.117,520.241 864.645,516.713 864.648,512.424L864.648,459.464C864.645,455.175 861.117,451.647 856.828,451.644Z" style="fill:rgb(230,230,230);fill-rule:nonzero;"></path>
            </g>
            <g transform="matrix(0.765028,0,0,0.914664,7.65028e-06,25.2348)">
                <rect x="666.657" y="298.868" width="4" height="68.6" style="fill:rgb(204,204,204);"></rect>
            </g>
            <g transform="matrix(0.765028,0,0,0.914664,7.65028e-06,25.2348)">
                <rect x="683.657" y="298.868" width="4" height="68.6" style="fill:rgb(204,204,204);"></rect>
            </g>
            <g transform="matrix(0.765028,0,0,0.914664,7.65028e-06,25.2348)">
                <rect x="700.657" y="298.868" width="4" height="68.6" style="fill:rgb(204,204,204);"></rect>
            </g>
            <g transform="matrix(0.765028,0,0,0.914664,7.65028e-06,25.2348)">
                <rect x="717.657" y="298.868" width="4" height="68.6" style="fill:rgb(204,204,204);"></rect>
            </g>
            <g transform="matrix(0.765028,0,0,0.914664,7.65028e-06,25.2348)">
                <rect x="734.657" y="298.868" width="4" height="68.6" style="fill:rgb(204,204,204);"></rect>
            </g>
            <g transform="matrix(0.765028,0,0,0.914664,7.65028e-06,25.2348)">
                <rect x="751.657" y="298.868" width="4" height="68.6" style="fill:rgb(204,204,204);"></rect>
            </g>
            <g transform="matrix(0.765028,0,0,0.914664,7.65028e-06,25.2348)">
                <rect x="768.657" y="298.868" width="4" height="68.6" style="fill:rgb(204,204,204);"></rect>
            </g>
            <g transform="matrix(0.765028,0,0,0.914664,7.65028e-06,25.2348)">
                <rect x="785.657" y="298.868" width="4" height="68.6" style="fill:rgb(204,204,204);"></rect>
            </g>
            <g transform="matrix(0.765028,0,0,0.914664,7.65028e-06,25.2348)">
                <rect x="802.657" y="298.868" width="4" height="68.6" style="fill:rgb(204,204,204);"></rect>
            </g>
            <g transform="matrix(0.765028,0,0,0.914664,-36.3322,-114.503)">
                <path d="M694.828,451.644L549.468,451.644C545.179,451.647 541.651,455.175 541.648,459.464L541.648,512.424C541.651,516.713 545.179,520.241 549.468,520.244L694.828,520.244C699.117,520.241 702.645,516.713 702.648,512.424L702.648,459.464C702.645,455.175 699.117,451.647 694.828,451.644Z" style="fill:rgb(230,230,230);fill-rule:nonzero;"></path>
            </g>
            <g transform="matrix(0.765028,0,0,0.914664,7.65028e-06,25.2348)">
                <rect x="504.657" y="298.868" width="4" height="68.6" style="fill:rgb(204,204,204);"></rect>
            </g>
            <g transform="matrix(0.765028,0,0,0.914664,7.65028e-06,25.2348)">
                <rect x="521.657" y="298.868" width="4" height="68.6" style="fill:rgb(204,204,204);"></rect>
            </g>
            <g transform="matrix(0.765028,0,0,0.914664,7.65028e-06,25.2348)">
                <rect x="538.657" y="298.868" width="4" height="68.6" style="fill:rgb(204,204,204);"></rect>
            </g>
            <g transform="matrix(0.765028,0,0,0.914664,7.65028e-06,25.2348)">
                <rect x="555.657" y="298.868" width="4" height="68.6" style="fill:rgb(204,204,204);"></rect>
            </g>
            <g transform="matrix(0.765028,0,0,0.914664,7.65028e-06,25.2348)">
                <rect x="572.657" y="298.868" width="4" height="68.6" style="fill:rgb(204,204,204);"></rect>
            </g>
            <g transform="matrix(0.765028,0,0,0.914664,7.65028e-06,25.2348)">
                <rect x="589.657" y="298.868" width="4" height="68.6" style="fill:rgb(204,204,204);"></rect>
            </g>
            <g transform="matrix(0.765028,0,0,0.914664,7.65028e-06,25.2348)">
                <rect x="606.657" y="298.868" width="4" height="68.6" style="fill:rgb(204,204,204);"></rect>
            </g>
            <g transform="matrix(0.765028,0,0,0.914664,7.65028e-06,25.2348)">
                <rect x="623.657" y="298.868" width="4" height="68.6" style="fill:rgb(204,204,204);"></rect>
            </g>
            <g transform="matrix(0.765028,0,0,0.914664,7.65028e-06,25.2348)">
                <rect x="640.657" y="298.868" width="4" height="68.6" style="fill:rgb(204,204,204);"></rect>
            </g>
            <g transform="matrix(0.765028,0,0,0.914664,-36.3322,-114.503)">
                <path d="M867.828,382.644L722.468,382.644C718.179,382.647 714.651,386.175 714.648,390.464L714.648,443.424C714.651,447.713 718.179,451.241 722.468,451.244L867.828,451.244C872.117,451.241 875.645,447.713 875.648,443.424L875.648,390.464C875.645,386.175 872.117,382.647 867.828,382.644Z" style="fill:rgb(230,230,230);fill-rule:nonzero;"></path>
            </g>
            <g transform="matrix(0.765028,0,0,0.914664,7.65028e-06,25.2348)">
                <rect x="677.657" y="229.868" width="4" height="68.6" style="fill:rgb(204,204,204);"></rect>
            </g>
            <g transform="matrix(0.765028,0,0,0.914664,7.65028e-06,25.2348)">
                <rect x="694.657" y="229.868" width="4" height="68.6" style="fill:rgb(204,204,204);"></rect>
            </g>
            <g transform="matrix(0.765028,0,0,0.914664,7.65028e-06,25.2348)">
                <rect x="711.657" y="229.868" width="4" height="68.6" style="fill:rgb(204,204,204);"></rect>
            </g>
            <g transform="matrix(0.765028,0,0,0.914664,7.65028e-06,25.2348)">
                <rect x="728.657" y="229.868" width="4" height="68.6" style="fill:rgb(204,204,204);"></rect>
            </g>
            <g transform="matrix(0.765028,0,0,0.914664,7.65028e-06,25.2348)">
                <rect x="745.657" y="229.868" width="4" height="68.6" style="fill:rgb(204,204,204);"></rect>
            </g>
            <g transform="matrix(0.765028,0,0,0.914664,7.65028e-06,25.2348)">
                <rect x="762.657" y="229.868" width="4" height="68.6" style="fill:rgb(204,204,204);"></rect>
            </g>
            <g transform="matrix(0.765028,0,0,0.914664,7.65028e-06,25.2348)">
                <rect x="779.657" y="229.868" width="4" height="68.6" style="fill:rgb(204,204,204);"></rect>
            </g>
            <g transform="matrix(0.765028,0,0,0.914664,7.65028e-06,25.2348)">
                <rect x="796.657" y="229.868" width="4" height="68.6" style="fill:rgb(204,204,204);"></rect>
            </g>
            <g transform="matrix(0.765028,0,0,0.914664,7.65028e-06,25.2348)">
                <rect x="813.657" y="229.868" width="4" height="68.6" style="fill:rgb(204,204,204);"></rect>
            </g>
            <g transform="matrix(0.765028,0,0,0.914664,-36.3322,-114.503)">
                <path d="M824.828,456.644L679.468,456.644C675.179,456.647 671.651,460.175 671.648,464.464L671.648,517.424C671.651,521.713 675.179,525.241 679.468,525.244L824.828,525.244C829.117,525.241 832.645,521.713 832.648,517.424L832.648,464.464C832.645,460.175 829.117,456.647 824.828,456.644Z" style="fill:rgb(33,85,205);fill-rule:nonzero;"></path>
            </g>
            <g transform="matrix(0.765028,0,0,0.914664,7.65028e-06,25.2348)">
                <rect x="634.657" y="303.868" width="4" height="68.6" style="fill:rgb(63,61,86);"></rect>
            </g>
            <g transform="matrix(0.765028,0,0,0.914664,7.65028e-06,25.2348)">
                <rect x="651.657" y="303.868" width="4" height="68.6" style="fill:rgb(63,61,86);"></rect>
            </g>
            <g transform="matrix(0.765028,0,0,0.914664,7.65028e-06,25.2348)">
                <rect x="668.657" y="303.868" width="4" height="68.6" style="fill:rgb(63,61,86);"></rect>
            </g>
            <g transform="matrix(0.765028,0,0,0.914664,7.65028e-06,25.2348)">
                <rect x="685.657" y="303.868" width="4" height="68.6" style="fill:rgb(63,61,86);"></rect>
            </g>
            <g transform="matrix(0.765028,0,0,0.914664,7.65028e-06,25.2348)">
                <rect x="702.657" y="303.868" width="4" height="68.6" style="fill:rgb(63,61,86);"></rect>
            </g>
            <g transform="matrix(0.765028,0,0,0.914664,7.65028e-06,25.2348)">
                <rect x="719.657" y="303.868" width="4" height="68.6" style="fill:rgb(63,61,86);"></rect>
            </g>
            <g transform="matrix(0.765028,0,0,0.914664,7.65028e-06,25.2348)">
                <rect x="736.657" y="303.868" width="4" height="68.6" style="fill:rgb(63,61,86);"></rect>
            </g>
            <g transform="matrix(0.765028,0,0,0.914664,7.65028e-06,25.2348)">
                <rect x="753.657" y="303.868" width="4" height="68.6" style="fill:rgb(63,61,86);"></rect>
            </g>
            <g transform="matrix(0.765028,0,0,0.914664,7.65028e-06,25.2348)">
                <rect x="770.657" y="303.868" width="4" height="68.6" style="fill:rgb(63,61,86);"></rect>
            </g>
            <g transform="matrix(0.765028,0,0,0.914664,-36.3322,-114.503)">
                <path d="M641.828,456.644L496.468,456.644C492.179,456.647 488.651,460.175 488.648,464.464L488.648,517.424C488.651,521.713 492.179,525.241 496.468,525.244L641.828,525.244C646.117,525.241 649.645,521.713 649.648,517.424L649.648,464.464C649.645,460.175 646.117,456.647 641.828,456.644Z" style="fill:rgb(33,85,205);fill-rule:nonzero;"></path>
            </g>
            <g transform="matrix(0.765028,0,0,0.914664,7.65028e-06,25.2348)">
                <rect x="451.657" y="303.868" width="4" height="68.6" style="fill:rgb(63,61,86);"></rect>
            </g>
            <g transform="matrix(0.765028,0,0,0.914664,7.65028e-06,25.2348)">
                <rect x="468.657" y="303.868" width="4" height="68.6" style="fill:rgb(63,61,86);"></rect>
            </g>
            <g transform="matrix(0.765028,0,0,0.914664,7.65028e-06,25.2348)">
                <rect x="485.657" y="303.868" width="4" height="68.6" style="fill:rgb(63,61,86);"></rect>
            </g>
            <g transform="matrix(0.765028,0,0,0.914664,7.65028e-06,25.2348)">
                <rect x="502.657" y="303.868" width="4" height="68.6" style="fill:rgb(63,61,86);"></rect>
            </g>
            <g transform="matrix(0.765028,0,0,0.914664,7.65028e-06,25.2348)">
                <rect x="519.657" y="303.868" width="4" height="68.6" style="fill:rgb(63,61,86);"></rect>
            </g>
            <g transform="matrix(0.765028,0,0,0.914664,7.65028e-06,25.2348)">
                <rect x="536.657" y="303.868" width="4" height="68.6" style="fill:rgb(63,61,86);"></rect>
            </g>
            <g transform="matrix(0.765028,0,0,0.914664,7.65028e-06,25.2348)">
                <rect x="553.657" y="303.868" width="4" height="68.6" style="fill:rgb(63,61,86);"></rect>
            </g>
            <g transform="matrix(0.765028,0,0,0.914664,7.65028e-06,25.2348)">
                <rect x="570.657" y="303.868" width="4" height="68.6" style="fill:rgb(63,61,86);"></rect>
            </g>
            <g transform="matrix(0.765028,0,0,0.914664,7.65028e-06,25.2348)">
                <rect x="587.657" y="303.868" width="4" height="68.6" style="fill:rgb(63,61,86);"></rect>
            </g>
            <g transform="matrix(0.765028,0,0,0.914664,-36.3322,-114.503)">
                <path d="M696.828,387.644L551.468,387.644C547.179,387.647 543.651,391.175 543.648,395.464L543.648,448.424C543.651,452.713 547.179,456.241 551.468,456.244L696.828,456.244C701.117,456.241 704.645,452.713 704.648,448.424L704.648,395.464C704.645,391.175 701.117,387.647 696.828,387.644Z" style="fill:rgb(33,85,205);fill-rule:nonzero;"></path>
            </g>
            <g transform="matrix(0.765028,0,0,0.914664,7.65028e-06,25.2348)">
                <rect x="506.657" y="234.868" width="4" height="68.6" style="fill:rgb(63,61,86);"></rect>
            </g>
            <g transform="matrix(0.765028,0,0,0.914664,7.65028e-06,25.2348)">
                <rect x="523.657" y="234.868" width="4" height="68.6" style="fill:rgb(63,61,86);"></rect>
            </g>
            <g transform="matrix(0.765028,0,0,0.914664,7.65028e-06,25.2348)">
                <rect x="540.657" y="234.868" width="4" height="68.6" style="fill:rgb(63,61,86);"></rect>
            </g>
            <g transform="matrix(0.765028,0,0,0.914664,7.65028e-06,25.2348)">
                <rect x="557.657" y="234.868" width="4" height="68.6" style="fill:rgb(63,61,86);"></rect>
            </g>
            <g transform="matrix(0.765028,0,0,0.914664,7.65028e-06,25.2348)">
                <rect x="574.657" y="234.868" width="4" height="68.6" style="fill:rgb(63,61,86);"></rect>
            </g>
            <g transform="matrix(0.765028,0,0,0.914664,7.65028e-06,25.2348)">
                <rect x="591.657" y="234.868" width="4" height="68.6" style="fill:rgb(63,61,86);"></rect>
            </g>
            <g transform="matrix(0.765028,0,0,0.914664,7.65028e-06,25.2348)">
                <rect x="608.657" y="234.868" width="4" height="68.6" style="fill:rgb(63,61,86);"></rect>
            </g>
            <g transform="matrix(0.765028,0,0,0.914664,7.65028e-06,25.2348)">
                <rect x="625.657" y="234.868" width="4" height="68.6" style="fill:rgb(63,61,86);"></rect>
            </g>
            <g transform="matrix(0.765028,0,0,0.914664,7.65028e-06,25.2348)">
                <rect x="642.657" y="234.868" width="4" height="68.6" style="fill:rgb(63,61,86);"></rect>
            </g>
            <g transform="matrix(0.765028,0,0,0.914664,-36.3322,-114.503)">
                <path d="M446.828,456.644L301.468,456.644C297.179,456.647 293.651,460.175 293.648,464.464L293.648,517.424C293.651,521.713 297.179,525.241 301.468,525.244L446.828,525.244C451.117,525.241 454.645,521.713 454.648,517.424L454.648,464.464C454.645,460.175 451.117,456.647 446.828,456.644Z" style="fill:rgb(33,85,205);fill-rule:nonzero;"></path>
            </g>
            <g transform="matrix(0.765028,0,0,0.914664,7.65028e-06,25.2348)">
                <rect x="256.657" y="303.868" width="4" height="68.6" style="fill:rgb(63,61,86);"></rect>
            </g>
            <g transform="matrix(0.765028,0,0,0.914664,7.65028e-06,25.2348)">
                <rect x="273.657" y="303.868" width="4" height="68.6" style="fill:rgb(63,61,86);"></rect>
            </g>
            <g transform="matrix(0.765028,0,0,0.914664,7.65028e-06,25.2348)">
                <rect x="290.657" y="303.868" width="4" height="68.6" style="fill:rgb(63,61,86);"></rect>
            </g>
            <g transform="matrix(0.765028,0,0,0.914664,7.65028e-06,25.2348)">
                <rect x="307.657" y="303.868" width="4" height="68.6" style="fill:rgb(63,61,86);"></rect>
            </g>
            <g transform="matrix(0.765028,0,0,0.914664,7.65028e-06,25.2348)">
                <rect x="324.657" y="303.868" width="4" height="68.6" style="fill:rgb(63,61,86);"></rect>
            </g>
            <g transform="matrix(0.765028,0,0,0.914664,7.65028e-06,25.2348)">
                <rect x="341.657" y="303.868" width="4" height="68.6" style="fill:rgb(63,61,86);"></rect>
            </g>
            <g transform="matrix(0.765028,0,0,0.914664,7.65028e-06,25.2348)">
                <rect x="358.657" y="303.868" width="4" height="68.6" style="fill:rgb(63,61,86);"></rect>
            </g>
            <g transform="matrix(0.765028,0,0,0.914664,7.65028e-06,25.2348)">
                <rect x="375.657" y="303.868" width="4" height="68.6" style="fill:rgb(63,61,86);"></rect>
            </g>
            <g transform="matrix(0.765028,0,0,0.914664,7.65028e-06,25.2348)">
                <rect x="392.657" y="303.868" width="4" height="68.6" style="fill:rgb(63,61,86);"></rect>
            </g>
            <g transform="matrix(0.765028,0,0,0.914664,-36.3322,-114.503)">
                <path d="M482.828,387.644L337.468,387.644C333.179,387.647 329.651,391.175 329.648,395.464L329.648,448.424C329.651,452.713 333.179,456.241 337.468,456.244L482.828,456.244C487.117,456.241 490.645,452.713 490.648,448.424L490.648,395.464C490.645,391.175 487.117,387.647 482.828,387.644Z" style="fill:rgb(33,85,205);fill-rule:nonzero;"></path>
            </g>
            <g transform="matrix(0.765028,0,0,0.914664,7.65028e-06,25.2348)">
                <rect x="292.657" y="234.868" width="4" height="68.6" style="fill:rgb(63,61,86);"></rect>
            </g>
            <g transform="matrix(0.765028,0,0,0.914664,7.65028e-06,25.2348)">
                <rect x="309.657" y="234.868" width="4" height="68.6" style="fill:rgb(63,61,86);"></rect>
            </g>
            <g transform="matrix(0.765028,0,0,0.914664,7.65028e-06,25.2348)">
                <rect x="326.657" y="234.868" width="4" height="68.6" style="fill:rgb(63,61,86);"></rect>
            </g>
            <g transform="matrix(0.765028,0,0,0.914664,7.65028e-06,25.2348)">
                <rect x="343.657" y="234.868" width="4" height="68.6" style="fill:rgb(63,61,86);"></rect>
            </g>
            <g transform="matrix(0.765028,0,0,0.914664,7.65028e-06,25.2348)">
                <rect x="360.657" y="234.868" width="4" height="68.6" style="fill:rgb(63,61,86);"></rect>
            </g>
            <g transform="matrix(0.765028,0,0,0.914664,7.65028e-06,25.2348)">
                <rect x="377.657" y="234.868" width="4" height="68.6" style="fill:rgb(63,61,86);"></rect>
            </g>
            <g transform="matrix(0.765028,0,0,0.914664,7.65028e-06,25.2348)">
                <rect x="394.657" y="234.868" width="4" height="68.6" style="fill:rgb(63,61,86);"></rect>
            </g>
            <g transform="matrix(0.765028,0,0,0.914664,7.65028e-06,25.2348)">
                <rect x="411.657" y="234.868" width="4" height="68.6" style="fill:rgb(63,61,86);"></rect>
            </g>
            <g transform="matrix(0.765028,0,0,0.914664,7.65028e-06,25.2348)">
                <rect x="428.657" y="234.868" width="4" height="68.6" style="fill:rgb(63,61,86);"></rect>
            </g>
            <g transform="matrix(0.765028,0,0,0.914664,-36.3322,-114.503)">
                <path d="M952.804,529.294C952.564,528.429 952.254,527.586 951.877,526.771L934.031,488.375C931.362,482.633 925.58,478.944 919.248,478.944L846.048,478.944C839.716,478.944 833.933,482.633 831.265,488.375L816.592,519.944L398.239,519.944L384.031,489.375C381.362,483.633 375.58,479.944 369.248,479.944L296.048,479.944C293.238,479.945 290.477,480.674 288.032,482.059L275.725,460.081C274.397,457.71 271.883,456.237 269.166,456.237C265.042,456.237 261.648,459.63 261.648,463.754L261.648,636.361C261.648,647.104 270.488,655.944 281.231,655.944L841.408,655.944C846.676,655.944 851.726,653.819 855.409,650.053L950.107,553.218C956.42,546.854 957.541,536.904 952.804,529.294Z" style="fill:rgb(63,61,86);fill-rule:nonzero;"></path>
            </g>
            <g transform="matrix(0.765028,0,0,0.914664,-36.3322,-114.503)">
                <path d="M854.247,517.444L845.049,517.444C840.991,517.439 837.653,514.101 837.648,510.043L837.648,499.845C837.653,495.787 840.991,492.449 845.049,492.444L854.247,492.444C858.305,492.449 861.643,495.787 861.648,499.845L861.648,510.043C861.643,514.101 858.305,517.439 854.247,517.444Z" style="fill:white;fill-rule:nonzero;"></path>
            </g>
            <g transform="matrix(0.765028,0,0,0.914664,-36.3322,-114.503)">
                <path d="M887.247,517.444L878.049,517.444C873.991,517.439 870.653,514.101 870.648,510.043L870.648,499.845C870.653,495.787 873.991,492.449 878.049,492.444L887.247,492.444C891.305,492.449 894.643,495.787 894.648,499.845L894.648,510.043C894.643,514.101 891.305,517.439 887.247,517.444Z" style="fill:white;fill-rule:nonzero;"></path>
            </g>
            <g transform="matrix(0.765028,0,0,0.914664,-36.3322,-114.503)">
                <path d="M552.247,318.444L543.049,318.444C538.991,318.439 535.653,315.101 535.648,311.043L535.648,300.845C535.653,296.787 538.991,293.449 543.049,293.444L552.247,293.444C556.305,293.449 559.643,296.787 559.648,300.845L559.648,311.043C559.643,315.101 556.305,318.439 552.247,318.444Z" style="fill:white;fill-rule:nonzero;"></path>
            </g>
            <g transform="matrix(0.765028,0,0,0.914664,-36.3322,-114.503)">
                <path d="M585.247,318.444L576.049,318.444C571.991,318.439 568.653,315.101 568.648,311.043L568.648,300.845C568.653,296.787 571.991,293.449 576.049,293.444L585.247,293.444C589.305,293.449 592.643,296.787 592.648,300.845L592.648,311.043C592.643,315.101 589.305,318.439 585.247,318.444Z" style="fill:white;fill-rule:nonzero;"></path>
            </g>
            <g transform="matrix(0.765028,0,0,0.914664,-36.3322,-114.503)">
                <path d="M618.247,318.444L609.049,318.444C604.991,318.439 601.653,315.101 601.648,311.043L601.648,300.845C601.653,296.787 604.991,293.449 609.049,293.444L618.247,293.444C622.305,293.449 625.643,296.787 625.648,300.845L625.648,311.043C625.643,315.101 622.305,318.439 618.247,318.444Z" style="fill:white;fill-rule:nonzero;"></path>
            </g>
            <g transform="matrix(0.765028,0,0,0.914664,-36.3322,-114.503)">
                <path d="M304.247,518.444L295.049,518.444C290.991,518.439 287.653,515.101 287.648,511.043L287.648,500.845C287.653,496.787 290.991,493.449 295.049,493.444L304.247,493.444C308.305,493.449 311.643,496.787 311.648,500.845L311.648,511.043C311.643,515.101 308.305,518.439 304.247,518.444Z" style="fill:white;fill-rule:nonzero;"></path>
            </g>
            <g transform="matrix(0.765028,0,0,0.914664,-36.3322,-114.503)">
                <path d="M337.247,518.444L328.049,518.444C323.991,518.439 320.653,515.101 320.648,511.043L320.648,500.845C320.653,496.787 323.991,493.449 328.049,493.444L337.247,493.444C341.305,493.449 344.643,496.787 344.648,500.845L344.648,511.043C344.643,515.101 341.305,518.439 337.247,518.444Z" style="fill:white;fill-rule:nonzero;"></path>
            </g>
            <g transform="matrix(0.765028,0,0,0.914664,-36.3322,-114.503)">
                <path d="M370.247,518.444L361.049,518.444C356.991,518.439 353.653,515.101 353.648,511.043L353.648,500.845C353.653,496.787 356.991,493.449 361.049,493.444L370.247,493.444C374.305,493.449 377.643,496.787 377.648,500.845L377.648,511.043C377.643,515.101 374.305,518.439 370.247,518.444Z" style="fill:white;fill-rule:nonzero;"></path>
            </g>
            <g transform="matrix(0.765028,0,0,0.914664,-36.3322,-114.503)">
                <path d="M247.171,623.759C221.265,623.139 193.493,637.654 186.122,662.497L326.746,656.772C324.087,654.933 321.415,653.118 318.732,651.326C297.156,636.975 273.076,624.379 247.171,623.759Z" style="fill:rgb(33,85,205);fill-rule:nonzero;"></path>
            </g>
            <g transform="matrix(0.765028,0,0,0.914664,-36.3322,-114.503)">
                <path d="M326.746,656.772C345.447,669.698 363.696,683.494 384.533,692.467C436.127,714.687 495.521,704.324 549.808,689.882C604.095,675.44 659.511,657.09 715.191,664.534C746.765,668.755 776.573,681.108 807.049,690.375C837.525,699.643 870.317,705.849 901.065,697.528C931.813,689.207 959.548,662.822 960.352,630.978C728.219,588.059 513.007,586.784 326.746,656.772Z" style="fill:rgb(33,85,205);fill-rule:nonzero;"></path>
            </g>
            <g transform="matrix(0.765028,0,0,0.914664,7.65028e-06,25.2348)">
                <circle cx="767.076" cy="60.127" r="26.701" style="fill:rgb(253,101,132);"></circle>
            </g>
            <g transform="matrix(0.765028,0,0,0.914664,-36.3322,-114.503)">
                <path d="M874.326,200.259C872.79,195.223 868.388,191.562 863.156,190.969C863.096,190.964 863.036,190.964 862.976,190.969C862.904,190.947 862.83,190.93 862.756,190.919C853.816,189.759 843.876,192.579 837.186,198.719L837.112,198.787C833.669,201.972 828.806,203.15 824.287,201.893C823.063,201.555 821.793,201.416 820.526,201.479C814.994,201.845 810.258,205.662 808.726,210.989C808.557,211.641 808.839,212.332 809.416,212.679C810.22,213.367 811.176,213.854 812.206,214.099C814.416,214.569 816.646,214.999 818.876,215.389C823.236,216.149 827.619,216.766 832.026,217.239C834.936,217.549 837.852,217.796 840.776,217.979C846.816,218.359 852.886,218.449 858.936,218.259C861.936,218.159 864.816,218.059 867.556,216.739C869.552,215.757 871.259,214.272 872.506,212.429C874.881,208.844 875.548,204.383 874.326,200.259Z" style="fill:rgb(230,230,230);fill-rule:nonzero;"></path>
            </g>
            <g transform="matrix(0.765028,0,0,0.914664,-36.3322,-114.503)">
                <path d="M819.396,239.159C819.345,238.041 819.157,236.932 818.836,235.859C817.292,230.824 812.889,227.164 807.656,226.569C807.599,226.564 807.542,226.564 807.486,226.569C807.41,226.548 807.333,226.531 807.256,226.519C802.308,225.913 797.287,226.429 792.566,228.029C788.511,229.353 784.78,231.517 781.619,234.38C778.177,237.57 773.313,238.75 768.792,237.493C767.567,237.155 766.295,237.016 765.026,237.079C759.494,237.445 754.758,241.262 753.226,246.589C753.067,247.241 753.346,247.925 753.916,248.279C754.721,248.965 755.677,249.452 756.706,249.699C758.926,250.169 761.146,250.599 763.386,250.989C767.746,251.749 772.126,252.366 776.526,252.839C785.465,253.799 794.46,254.14 803.446,253.859C806.436,253.759 809.326,253.659 812.066,252.339C814.059,251.357 815.762,249.871 817.006,248.029C818.758,245.418 819.599,242.298 819.396,239.159Z" style="fill:rgb(230,230,230);fill-rule:nonzero;"></path>
            </g>
            <g transform="matrix(0.765028,0,0,0.914664,-36.3322,-114.503)">
                <path d="M829.308,304.405C828.989,305.796 829.213,307.257 829.933,308.489C830.798,309.774 832.435,310.315 833.895,309.8C836.692,308.931 839.451,307.914 842.224,306.972C843.006,306.737 843.471,305.918 843.272,305.127C843.047,304.338 842.22,303.868 841.427,304.079L834.497,306.434C833.974,306.612 833.454,306.814 832.921,306.959C832.865,306.975 832.662,307.019 832.673,307.018C832.698,307.016 832.856,307.033 832.681,307.021C832.581,306.991 832.582,306.997 832.683,307.04L832.55,306.965C832.671,307.066 832.536,306.951 832.494,306.909C832.457,306.872 832.349,306.723 832.433,306.845C832.373,306.758 832.32,306.666 832.276,306.57C832.349,306.732 832.211,306.331 832.202,306.276C832.146,305.65 832.181,305.02 832.308,304.405C832.304,303.584 831.629,302.909 830.808,302.905C829.993,302.925 829.328,303.59 829.308,304.405L829.308,304.405Z" style="fill:rgb(225,225,225);fill-rule:nonzero;stroke:rgb(225,225,225);stroke-width:1px;"></path>
            </g>
            <g transform="matrix(0.765028,0,0,0.914664,-36.3322,-114.503)">
                <path d="M717.627,309.672L725.02,318.994C725.961,320.181 727.977,318.896 727.527,317.535C726.605,314.751 729.786,313.199 731.982,312.741C734.895,312.132 737.818,312.231 740.583,310.979C742.339,310.184 740.815,307.597 739.069,308.389C735.835,309.853 732.065,309.182 728.79,310.607C725.863,311.88 723.549,315.056 724.634,318.332L727.141,316.873L719.748,307.551C719.163,306.974 718.211,306.974 717.626,307.551C717.063,308.141 717.063,309.082 717.626,309.672L717.627,309.672Z" style="fill:rgb(225,225,225);fill-rule:nonzero;stroke:rgb(225,225,225);stroke-width:1px;"></path>
            </g>
            <g transform="matrix(0.765028,0,0,0.914664,-36.3322,-114.503)">
                <path d="M702.627,200.672L710.02,209.994C710.961,211.181 712.977,209.896 712.527,208.535C711.605,205.751 714.786,204.199 716.982,203.741C719.895,203.132 722.818,203.231 725.583,201.979C727.339,201.184 725.815,198.597 724.069,199.389C720.835,200.853 717.065,200.182 713.79,201.607C710.863,202.88 708.549,206.056 709.634,209.332L712.141,207.873L704.748,198.551C704.163,197.974 703.211,197.974 702.626,198.551C702.063,199.141 702.063,200.082 702.626,200.672L702.627,200.672Z" style="fill:rgb(225,225,225);fill-rule:nonzero;stroke:rgb(225,225,225);stroke-width:1px;"></path>
            </g>
        </g>
        <g transform="matrix(1,0,0,1,-47.4913,565.102)">
            <path d="M920.247,517.444L911.049,517.444C906.991,517.439 903.653,514.101 903.648,510.043L903.648,499.845C903.653,495.787 906.991,492.449 911.049,492.444L920.247,492.444C924.305,492.449 927.643,495.787 927.648,499.845L927.648,510.043C927.643,514.101 924.305,517.439 920.247,517.444Z" style="fill:white;fill-rule:nonzero;"></path>
        </g>
    </g>
</svg>
